<svg xmlns="http://www.w3.org/2000/svg" viewBox="0 0 800 600" fill="none">
  <rect width="800" height="600" rx="16" fill="#0f172b" />
  <rect
    x="32"
    y="32"
    width="736"
    height="536"
    rx="12"
    stroke="#314158"
    stroke-width="2"
    fill="none"
  />

  <!-- Gradient Accent Bar -->
  <rect x="32" y="32" width="736" height="8" rx="4" fill="#ac4bff" />

  <!-- Score Circle -->
  <circle
    cx="400"
    cy="180"
    r="80"
    stroke="#ac4bff"
    stroke-width="6"
    fill="none"
    opacity="0.3"
  />
  <path
    d="M400 100 A80 80 0 1 1 361.46 109.90"
    stroke="#00c758"
    stroke-width="6"
    fill="none"
    stroke-linecap="round"
  />
  <text
    x="400"
    y="195"
    text-anchor="middle"
    fill="#fff"
    font-family="Inter, sans-serif"
    font-size="48"
    font-weight="700"
  >
    92
  </text>
  <text
    x="400"
    y="220"
    text-anchor="middle"
    fill="#314158"
    font-family="Inter, sans-serif"
    font-size="14"
    letter-spacing="2"
  >
    SEO SCORE
  </text>

  <!-- Title -->
  <text
    x="400"
    y="310"
    text-anchor="middle"
    fill="#ac4bff"
    font-family="Inter, sans-serif"
    font-size="14"
    font-weight="600"
    letter-spacing="3"
  >
    ⚡ SEO AUDIT PRO
  </text>
  <text
    x="400"
    y="348"
    text-anchor="middle"
    fill="#fff"
    font-family="Inter, sans-serif"
    font-size="24"
    font-weight="700"
  >
    Production-Grade SEO Auditing
  </text>
  <text
    x="400"
    y="376"
    text-anchor="middle"
    fill="#314158"
    font-family="Geist, sans-serif"
    font-size="14"
  >
    AI Agent-Ready Reports • 8 Category Analysis
  </text>

  <!-- Feature Chips -->
  <rect
    x="160"
    y="410"
    width="100"
    height="28"
    rx="14"
    fill="#1d293d"
    stroke="#314158"
    stroke-width="1"
  />
  <text
    x="210"
    y="429"
    text-anchor="middle"
    fill="#90a1b9"
    font-family="Inter, sans-serif"
    font-size="11"
    font-weight="500"
  >
    META TAGS
  </text>

  <rect
    x="272"
    y="410"
    width="100"
    height="28"
    rx="14"
    fill="#1d293d"
    stroke="#314158"
    stroke-width="1"
  />
  <text
    x="322"
    y="429"
    text-anchor="middle"
    fill="#90a1b9"
    font-family="Inter, sans-serif"
    font-size="11"
    font-weight="500"
  >
    PERFORMANCE
  </text>

  <rect
    x="384"
    y="410"
    width="100"
    height="28"
    rx="14"
    fill="#1d293d"
    stroke="#314158"
    stroke-width="1"
  />
  <text
    x="434"
    y="429"
    text-anchor="middle"
    fill="#90a1b9"
    font-family="Inter, sans-serif"
    font-size="11"
    font-weight="500"
  >
    CONTENT
  </text>

  <rect
    x="496"
    y="410"
    width="100"
    height="28"
    rx="14"
    fill="#1d293d"
    stroke="#314158"
    stroke-width="1"
  />
  <text
    x="546"
    y="429"
    text-anchor="middle"
    fill="#90a1b9"
    font-family="Inter, sans-serif"
    font-size="11"
    font-weight="500"
  >
    SECURITY
  </text>

  <rect
    x="240"
    y="450"
    width="100"
    height="28"
    rx="14"
    fill="#1d293d"
    stroke="#314158"
    stroke-width="1"
  />
  <text
    x="290"
    y="469"
    text-anchor="middle"
    fill="#90a1b9"
    font-family="Inter, sans-serif"
    font-size="11"
    font-weight="500"
  >
    LINKS
  </text>

  <rect
    x="352"
    y="450"
    width="100"
    height="28"
    rx="14"
    fill="#1d293d"
    stroke="#314158"
    stroke-width="1"
  />
  <text
    x="402"
    y="469"
    text-anchor="middle"
    fill="#90a1b9"
    font-family="Inter, sans-serif"
    font-size="11"
    font-weight="500"
  >
    MOBILE
  </text>

  <rect
    x="464"
    y="450"
    width="100"
    height="28"
    rx="14"
    fill="#1d293d"
    stroke="#314158"
    stroke-width="1"
  />
  <text
    x="514"
    y="469"
    text-anchor="middle"
    fill="#90a1b9"
    font-family="Inter, sans-serif"
    font-size="11"
    font-weight="500"
  >
    SOCIAL
  </text>

  <!-- Bar indicators -->
  <rect x="100" y="510" width="600" height="4" rx="2" fill="#314158" />
  <rect x="100" y="510" width="480" height="4" rx="2" fill="#00c758" />
  <rect x="100" y="522" width="600" height="4" rx="2" fill="#314158" />
  <rect x="100" y="522" width="360" height="4" rx="2" fill="#f99c00" />
  <rect x="100" y="534" width="600" height="4" rx="2" fill="#314158" />
  <rect x="100" y="534" width="540" height="4" rx="2" fill="#00c758" />

  <!-- Badge -->
  <rect x="620" y="32" width="120" height="32" rx="16" fill="#ac4bff" />
  <text
    x="680"
    y="52"
    text-anchor="middle"
    fill="#fff"
    font-family="Inter, sans-serif"
    font-size="12"
    font-weight="600"
  >
    v1.0.0
  </text>
</svg>
